<!-- Generated by IcoMoon.io -->
<svg version="1.1" xmlns="http://www.w3.org/2000/svg" width="32" height="32" viewBox="0 0 32 32">
<title>app</title>
<path fill="#8964d7" d="M29.667 0h-27.333c-1.287 0-2.333 1.047-2.333 2.333v3.333c0 1.287 1.047 2.333 2.333 2.333h27.333c1.287 0 2.333-1.047 2.333-2.333v-3.333c0-1.287-1.047-2.333-2.333-2.333z"></path>
<path fill="#8964d7" d="M2.333 32h10c1.287 0 2.333-1.047 2.333-2.333v-16.667c0-1.287-1.047-2.333-2.333-2.333h-10c-1.287 0-2.333 1.047-2.333 2.333v16.667c0 1.287 1.047 2.333 2.333 2.333z"></path>
<path fill="#8964d7" d="M29.667 10.667h-10c-1.287 0-2.333 1.047-2.333 2.333v4.667c0 1.287 1.047 2.333 2.333 2.333h10c1.287 0 2.333-1.047 2.333-2.333v-4.667c0-1.287-1.047-2.333-2.333-2.333z"></path>
<path fill="#8964d7" d="M29.667 22.667h-10c-1.287 0-2.333 1.047-2.333 2.333v4.667c0 1.287 1.047 2.333 2.333 2.333h10c1.287 0 2.333-1.047 2.333-2.333v-4.667c0-1.287-1.047-2.333-2.333-2.333z"></path>
</svg>
