<!-- Generated by IcoMoon.io -->
<svg version="1.1" xmlns="http://www.w3.org/2000/svg" width="37" height="32" viewBox="0 0 37 32">
<title>people</title>
<path fill="#e1aa98" d="M18.286 12.474c3.432 0 6.214-2.782 6.214-6.214s-2.782-6.214-6.214-6.214c-3.432 0-6.214 2.782-6.214 6.214s2.782 6.214 6.214 6.214z"></path>
<path fill="#e1aa98" d="M30.857 12.474c2.17 0 3.929-1.759 3.929-3.929s-1.759-3.929-3.929-3.929c-2.17 0-3.929 1.759-3.929 3.929s1.759 3.929 3.929 3.929z"></path>
<path fill="#e1aa98" d="M5.714 12.474c2.17 0 3.929-1.759 3.929-3.929s-1.759-3.929-3.929-3.929c-2.17 0-3.929 1.759-3.929 3.929s1.759 3.929 3.929 3.929z"></path>
<path fill="#e1aa98" d="M9.585 16.002c-1.546-1.267-2.947-1.099-4.735-1.099-2.674 0-4.85 2.163-4.85 4.821v7.801c0 1.154 0.942 2.093 2.101 2.093 5.002 0 4.399 0.090 4.399-0.216 0-5.528-0.655-9.581 3.085-13.399z"></path>
<path fill="#e1aa98" d="M19.986 14.931c-3.123-0.261-5.838 0.003-8.179 1.936-3.918 3.139-3.164 7.364-3.164 12.534 0 1.368 1.113 2.502 2.501 2.502 15.077 0 15.677 0.486 16.571-1.494 0.293-0.67 0.213-0.457 0.213-6.862 0-5.088-4.405-8.616-7.942-8.616z"></path>
<path fill="#e1aa98" d="M31.721 14.902c-1.798 0-3.191-0.166-4.735 1.099 3.712 3.79 3.085 7.567 3.085 13.399 0 0.308-0.5 0.216 4.324 0.216 1.2 0 2.176-0.972 2.176-2.167v-7.726c0-2.658-2.176-4.821-4.85-4.821z"></path>
</svg>
