<!-- Generated by IcoMoon.io -->
<svg version="1.1" xmlns="http://www.w3.org/2000/svg" width="32" height="32" viewBox="0 0 32 32">
<title>plan</title>
<path fill="#e1aa98" d="M21 2h-2.172c-0.412-1.164-1.524-2-2.828-2s-2.416 0.836-2.83 2h-2.17c-0.552 0-1 0.448-1 1v4c0 0.552 0.448 1 1 1h10c0.552 0 1-0.448 1-1v-4c0-0.552-0.448-1-1-1z"></path>
<path fill="#e1aa98" d="M26 4h-2v3c0 1.654-1.346 3-3 3h-10c-1.654 0-3-1.346-3-3v-3h-2c-1.102 0-2 0.898-2 2v24c0 1.122 0.878 2 2 2h20c1.122 0 2-0.878 2-2v-24c0-1.122-0.878-2-2-2zM15.708 21.708l-4 4c-0.196 0.194-0.452 0.292-0.708 0.292s-0.512-0.098-0.708-0.292l-2-2c-0.39-0.39-0.39-1.024 0-1.414s1.024-0.39 1.414 0l1.294 1.292 3.292-3.292c0.39-0.39 1.024-0.39 1.414 0s0.392 1.022 0.002 1.414zM15.708 13.708l-4 4c-0.196 0.194-0.452 0.292-0.708 0.292s-0.512-0.098-0.708-0.292l-2-2c-0.39-0.39-0.39-1.024 0-1.414s1.024-0.39 1.414 0l1.294 1.292 3.292-3.292c0.39-0.39 1.024-0.39 1.414 0s0.392 1.022 0.002 1.414zM23 24h-4c-0.552 0-1-0.448-1-1s0.448-1 1-1h4c0.552 0 1 0.448 1 1s-0.448 1-1 1zM23 16h-4c-0.552 0-1-0.448-1-1s0.448-1 1-1h4c0.552 0 1 0.448 1 1s-0.448 1-1 1z"></path>
</svg>
