<svg aria-hidden="true" style="position:absolute;width:0;height:0" xmlns="http://www.w3.org/2000/svg" overflow="hidden"><defs><symbol id="icon-people" viewBox="0 0 37 32"><path d="M18.286 12.474a6.214 6.214 0 100-12.428 6.214 6.214 0 000 12.428zM30.857 12.474a3.929 3.929 0 100-7.858 3.929 3.929 0 000 7.858zM5.714 12.474a3.929 3.929 0 100-7.858 3.929 3.929 0 000 7.858zM9.585 16.002c-1.546-1.267-2.947-1.099-4.735-1.099-2.674 0-4.85 2.163-4.85 4.821v7.801a2.1 2.1 0 002.101 2.093c5.002 0 4.399.09 4.399-.216 0-5.528-.655-9.581 3.085-13.399z"/><path d="M19.986 14.931c-3.123-.261-5.838.003-8.179 1.936-3.918 3.139-3.164 7.364-3.164 12.534a2.506 2.506 0 002.501 2.502c15.077 0 15.677.486 16.571-1.494.293-.67.213-.457.213-6.862 0-5.088-4.405-8.616-7.942-8.616zM31.721 14.902c-1.798 0-3.191-.166-4.735 1.099 3.712 3.79 3.085 7.567 3.085 13.399 0 .308-.5.216 4.324.216 1.2 0 2.176-.972 2.176-2.167v-7.726c0-2.658-2.176-4.821-4.85-4.821z"/></symbol><symbol id="icon-plan" viewBox="0 0 32 32"><path d="M21 2h-2.172C18.416.836 17.304 0 16 0s-2.416.836-2.83 2H11a1 1 0 00-1 1v4a1 1 0 001 1h10a1 1 0 001-1V3a1 1 0 00-1-1z"/><path d="M26 4h-2v3c0 1.654-1.346 3-3 3H11c-1.654 0-3-1.346-3-3V4H6c-1.102 0-2 .898-2 2v24c0 1.122.878 2 2 2h20c1.122 0 2-.878 2-2V6c0-1.122-.878-2-2-2zM15.708 21.708l-4 4a1.004 1.004 0 01-1.416 0l-2-2a1 1 0 011.414-1.414L11 23.586l3.292-3.292a1 1 0 011.416 1.414zm0-8l-4 4a1.004 1.004 0 01-1.416 0l-2-2a1 1 0 011.414-1.414L11 15.586l3.292-3.292a1 1 0 011.416 1.414zM23 24h-4a1 1 0 010-2h4a1 1 0 010 2zm0-8h-4a1 1 0 010-2h4a1 1 0 010 2z"/></symbol><symbol id="icon-app" viewBox="0 0 32 32"><path d="M29.667 0H2.334A2.336 2.336 0 00.001 2.333v3.333a2.336 2.336 0 002.333 2.333h27.333A2.336 2.336 0 0032 5.666V2.333A2.336 2.336 0 0029.667 0zM2.333 32h10a2.336 2.336 0 002.333-2.333V13a2.336 2.336 0 00-2.333-2.333h-10A2.336 2.336 0 000 13v16.667A2.336 2.336 0 002.333 32zM29.667 10.667h-10A2.336 2.336 0 0017.334 13v4.667A2.336 2.336 0 0019.667 20h10A2.336 2.336 0 0032 17.667V13a2.336 2.336 0 00-2.333-2.333zM29.667 22.667h-10A2.336 2.336 0 0017.334 25v4.667A2.336 2.336 0 0019.667 32h10A2.336 2.336 0 0032 29.667V25a2.336 2.336 0 00-2.333-2.333z"/></symbol></defs></svg>